<?xml version="1.0" encoding="UTF-8" standalone="no"?>
<svg
   xmlns:dc="http://purl.org/dc/elements/1.1/"
   xmlns:cc="http://creativecommons.org/ns#"
   xmlns:rdf="http://www.w3.org/1999/02/22-rdf-syntax-ns#"
   xmlns:svg="http://www.w3.org/2000/svg"
   xmlns="http://www.w3.org/2000/svg"
   xmlns:sodipodi="http://sodipodi.sourceforge.net/DTD/sodipodi-0.dtd"
   xmlns:inkscape="http://www.inkscape.org/namespaces/inkscape"
   width="100px"
   height="100px"
   viewBox="0 0 100 100"
   version="1.1"
   id="SVGRoot"
   sodipodi:docname="size.svg"
   inkscape:version="1.0.2-2 (e86c870879, 2021-01-15)"
   inkscape:export-filename="C:\Users\Janarth\Desktop\dev\javascript\minesweeper\assets\amber\size_1.png"
   inkscape:export-xdpi="95.599998"
   inkscape:export-ydpi="95.599998">
  <defs
     id="defs1402" />
  <sodipodi:namedview
     id="base"
     pagecolor="#ffffff"
     bordercolor="#666666"
     borderopacity="1.0"
     inkscape:pageopacity="0.0"
     inkscape:pageshadow="2"
     inkscape:zoom="5.6"
     inkscape:cx="25.173838"
     inkscape:cy="54.184463"
     inkscape:document-units="px"
     inkscape:current-layer="layer2"
     inkscape:document-rotation="0"
     showgrid="false"
     inkscape:window-width="2342"
     inkscape:window-height="1366"
     inkscape:window-x="4691"
     inkscape:window-y="337"
     inkscape:window-maximized="0" />
  <metadata
     id="metadata1405">
    <rdf:RDF>
      <cc:Work
         rdf:about="">
        <dc:format>image/svg+xml</dc:format>
        <dc:type
           rdf:resource="http://purl.org/dc/dcmitype/StillImage" />
      </cc:Work>
    </rdf:RDF>
  </metadata>
  <g
     inkscape:groupmode="layer"
     id="layer2"
     inkscape:label="bg">
    <rect
       style="fill:#ffe28a;fill-opacity:1;stroke:#a77e00;stroke-width:0;stroke-linejoin:round"
       id="rect836"
       width="100"
       height="100"
       x="0.1735491"
       y="0.296875"
       ry="6.9642859" />
  </g>
  <g
     inkscape:label="Layer 1"
     inkscape:groupmode="layer"
     id="layer1">
    <circle
       style="fill:#ffbf00;stroke:#a77e00;stroke-width:0;stroke-linejoin:round;fill-opacity:1"
       id="path1976"
       cx="50"
       cy="50"
       r="4.9999995" />
    <rect
       style="fill:#ffbf00;fill-opacity:1;stroke:#a77e00;stroke-width:0;stroke-linejoin:round"
       id="rect1988"
       width="25"
       height="25"
       x="37.5"
       y="37.5"
       ry="5" />
    <path
       id="rect2002"
       style="fill:#ffbf00;fill-opacity:1;stroke:#a77e00;stroke-width:0;stroke-linejoin:round"
       d="M 69.023438 0.109375 C 66.530438 0.109375 64.523438 2.116375 64.523438 4.609375 C 64.523438 7.102375 66.530438 9.109375 69.023438 9.109375 L 84.988281 9.109375 L 63.259766 30.839844 C 61.496948 32.602661 61.496948 35.440308 63.259766 37.203125 C 65.022583 38.965942 67.86023 38.965942 69.623047 37.203125 L 90.873047 15.955078 L 90.873047 30.958984 C 90.873047 33.451984 92.880047 35.458984 95.373047 35.458984 C 97.866047 35.458984 99.873047 33.451984 99.873047 30.958984 L 99.873047 5.6894531 C 99.954135 5.1427785 99.937868 4.5876455 99.816406 4.046875 C 99.538124 1.8247075 97.673048 0.109375 95.373047 0.109375 L 69.023438 0.109375 z " />
    <path
       id="rect2002-2"
       style="fill:#ffbf00;fill-opacity:1;stroke:#a77e00;stroke-width:0;stroke-linejoin:round"
       d="M 33.535156 61.552734 C 32.384871 61.554388 31.235609 61.996231 30.355469 62.878906 L 9.1347656 84.158203 L 9.1132812 69.152344 C 9.1096965 66.659346 7.1004193 64.656571 4.6074219 64.660156 C 2.1144245 64.663741 0.10969646 66.673018 0.11328125 69.166016 L 0.15039062 94.421875 C 0.067652739 94.97314 0.085698846 95.532904 0.20898438 96.078125 C 0.48993879 98.30047 2.3577946 100.01307 4.6582031 100.00977 L 31.007812 99.970703 C 33.50081 99.967118 35.505538 97.957841 35.501953 95.464844 C 35.498368 92.971846 33.489091 90.967118 30.996094 90.970703 L 15.027344 90.994141 L 36.728516 69.232422 C 38.488796 67.467072 38.4841 64.629421 36.71875 62.869141 C 35.836075 61.989 34.685441 61.55108 33.535156 61.552734 z " />
    <path
       id="rect2002-8"
       style="fill:#ffbf00;fill-opacity:1;stroke:#a77e00;stroke-width:0;stroke-linejoin:round"
       d="M 66.056641 61.859375 C 64.906358 61.856775 63.754493 62.296367 62.871094 63.175781 C 61.104296 64.934609 61.098594 67.772265 62.857422 69.539062 L 84.058594 90.835938 L 69.052734 90.802734 C 66.559741 90.797099 64.548604 92.799975 64.542969 95.292969 C 64.537334 97.785962 66.540209 99.797099 69.033203 99.802734 L 94.294922 99.859375 C 94.843432 99.943037 95.400157 99.927133 95.943359 99.806641 C 95.944001 99.806562 95.944671 99.80672 95.945312 99.806641 C 98.168081 99.533362 99.887379 97.673026 99.892578 95.373047 L 99.953125 69.021484 C 99.95876 66.528491 97.955884 64.517354 95.462891 64.511719 C 92.969897 64.506083 90.95876 66.508959 90.953125 69.001953 L 90.916016 84.966797 L 69.236328 63.189453 C 68.356914 62.306054 67.206924 61.861975 66.056641 61.859375 z " />
    <path
       id="rect2002-29"
       style="fill:#ffbf00;fill-opacity:1;stroke:#a77e00;stroke-width:0;stroke-linejoin:round;stroke-miterlimit:4;stroke-dasharray:none"
       d="M 30.925781 0.05078125 L 5.65625 0.11523438 C 5.1066359 0.034858299 4.5489203 0.051567443 4.0058594 0.17578125 C 1.7872489 0.4621846 0.080189391 2.3309277 0.0859375 4.6289062 L 0.15234375 30.978516 C 0.15857966 33.471508 2.1710703 35.473033 4.6640625 35.466797 C 7.1570547 35.460561 9.1585797 33.450023 9.1523438 30.957031 L 9.1113281 14.990234 L 30.896484 36.666016 C 32.663706 38.424418 35.501363 38.417612 37.259766 36.650391 C 39.018168 34.883169 39.011362 32.043558 37.244141 30.285156 L 15.939453 9.0878906 L 30.947266 9.0507812 C 33.440258 9.0445453 35.441783 7.0340078 35.435547 4.5410156 C 35.429311 2.0480234 33.418773 0.04454532 30.925781 0.05078125 z " />
  </g>
</svg>
