<?xml version="1.0" encoding="UTF-8" standalone="no"?>
<svg
   xmlns:dc="http://purl.org/dc/elements/1.1/"
   xmlns:cc="http://creativecommons.org/ns#"
   xmlns:rdf="http://www.w3.org/1999/02/22-rdf-syntax-ns#"
   xmlns:svg="http://www.w3.org/2000/svg"
   xmlns="http://www.w3.org/2000/svg"
   xmlns:sodipodi="http://sodipodi.sourceforge.net/DTD/sodipodi-0.dtd"
   xmlns:inkscape="http://www.inkscape.org/namespaces/inkscape"
   width="100px"
   height="100px"
   viewBox="0 0 100 100"
   version="1.1"
   id="SVGRoot"
   sodipodi:docname="size_3.svg"
   inkscape:version="1.0.2-2 (e86c870879, 2021-01-15)"
   inkscape:export-filename="C:\Users\Janarth\Desktop\dev\javascript\minesweeper\assets\amber\size_3.png"
   inkscape:export-xdpi="95.800003"
   inkscape:export-ydpi="95.800003">
  <defs
     id="defs1402" />
  <sodipodi:namedview
     id="base"
     pagecolor="#ffffff"
     bordercolor="#666666"
     borderopacity="1.0"
     inkscape:pageopacity="0.0"
     inkscape:pageshadow="2"
     inkscape:zoom="5.6"
     inkscape:cx="25.173838"
     inkscape:cy="54.184463"
     inkscape:document-units="px"
     inkscape:current-layer="layer1"
     inkscape:document-rotation="0"
     showgrid="false"
     inkscape:window-width="2342"
     inkscape:window-height="1366"
     inkscape:window-x="5114"
     inkscape:window-y="542"
     inkscape:window-maximized="0" />
  <metadata
     id="metadata1405">
    <rdf:RDF>
      <cc:Work
         rdf:about="">
        <dc:format>image/svg+xml</dc:format>
        <dc:type
           rdf:resource="http://purl.org/dc/dcmitype/StillImage" />
        <dc:title></dc:title>
      </cc:Work>
    </rdf:RDF>
  </metadata>
  <g
     inkscape:groupmode="layer"
     id="layer2"
     inkscape:label="border"
     style="display:inline">
    <rect
       style="fill:#ffe28a;fill-opacity:1;stroke:#ffbf00;stroke-width:6.48727;stroke-linejoin:round;stroke-miterlimit:4;stroke-dasharray:none;stroke-dashoffset:0;stroke-opacity:1"
       id="rect2819"
       width="93.512741"
       height="93.512733"
       x="3.2436302"
       y="3.2436302"
       ry="4.0569654" />
  </g>
  <g
     inkscape:label="Layer 1"
     inkscape:groupmode="layer"
     id="layer1">
    <path
       id="rect2002"
       style="fill:#ffbf00;fill-opacity:1;stroke:#a77e00;stroke-width:0;stroke-linejoin:round"
       d="m 58.839529,18.310145 c -1.918069,0 -3.46222,1.544151 -3.46222,3.462222 0,1.91807 1.544151,3.462221 3.46222,3.462221 H 71.122601 L 54.405062,41.953632 c -1.356282,1.35628 -1.356282,3.539516 0,4.895798 1.35628,1.356279 3.539516,1.356279 4.895797,0 L 75.650238,30.501552 v 11.543743 c 0,1.918072 1.544151,3.462222 3.462221,3.462222 1.918071,0 3.462223,-1.54415 3.462223,-3.462222 V 22.603359 c 0.0624,-0.420601 0.04987,-0.847711 -0.04359,-1.263771 -0.214102,-1.709696 -1.649059,-3.029443 -3.418639,-3.029443 z" />
    <path
       id="rect2002-2"
       style="fill:#ffbf00;fill-opacity:1;stroke:#a77e00;stroke-width:0;stroke-linejoin:round"
       d="m 43.499752,52.726449 c -0.88501,0.0012 -1.769233,0.34122 -2.446397,1.020335 l -16.326838,16.37192 -0.01653,-11.545246 c -0.0027,-1.91807 -1.548662,-3.45897 -3.46673,-3.456211 -1.918069,0.0027 -3.460472,1.54866 -3.457714,3.46673 l 0.02855,19.431417 c -0.06366,0.424133 -0.04977,0.854806 0.04508,1.274289 0.216162,1.709834 1.653258,3.027478 3.423152,3.02494 l 20.272928,-0.03005 c 1.91807,-0.0027 3.460473,-1.54866 3.457714,-3.466729 -0.0027,-1.918069 -1.548661,-3.460472 -3.466728,-3.457715 L 29.26016,75.378169 45.956664,58.635081 c 1.354328,-1.358228 1.350715,-3.541467 -0.0075,-4.895797 -0.679115,-0.677165 -1.564392,-1.014094 -2.449401,-1.012821 z" />
    <path
       id="rect2002-8"
       style="fill:#ffbf00;fill-opacity:1;stroke:#a77e00;stroke-width:0;stroke-linejoin:round"
       d="m 56.7355,52.783803 c -0.885008,-0.0021 -1.771233,0.336215 -2.450905,1.01282 -1.359344,1.353212 -1.363731,3.536454 -0.01052,4.895798 l 16.311816,16.385444 -11.545247,-0.02555 c -1.918066,-0.0043 -3.465399,1.536643 -3.469734,3.454708 -0.0043,1.918067 1.536641,3.4654 3.454706,3.469735 l 19.435926,0.04358 c 0.422015,0.06436 0.850349,0.05213 1.268279,-0.04057 4.95e-4,-6.1e-5 9.4e-4,6.1e-5 0.0015,0 1.710159,-0.210256 3.032957,-1.641567 3.036956,-3.41113 l 0.0466,-20.274433 c 0.0043,-1.918065 -1.536643,-3.465399 -3.454709,-3.469734 -1.918065,-0.0043 -3.4654,1.536642 -3.469735,3.454707 L 75.861869,70.56225 59.181894,53.807142 C 58.50529,53.12747 57.620506,52.785804 56.7355,52.783803 Z" />
    <path
       id="rect2002-29"
       style="fill:#ffbf00;fill-opacity:1;stroke:#a77e00;stroke-width:0;stroke-linejoin:round;stroke-miterlimit:4;stroke-dasharray:none"
       d="m 41.313571,18.622206 -19.441936,0.04959 c -0.422863,-0.06184 -0.851959,-0.04899 -1.269781,0.04659 -1.706961,0.220354 -3.020343,1.658132 -3.01592,3.426156 l 0.05109,20.27293 c 0.0048,1.918066 1.553173,3.458003 3.471239,3.453205 1.918064,-0.0048 3.458002,-1.55167 3.453204,-3.469735 l -0.03156,-12.284583 16.761119,16.676968 c 1.35967,1.352885 3.542914,1.347648 4.895798,-0.01203 1.352884,-1.359669 1.347648,-3.544417 -0.01203,-4.8973 L 29.783353,25.5752 41.330102,25.546648 c 1.918064,-0.0048 3.458003,-1.551671 3.453205,-3.469735 -0.0048,-1.918065 -1.551671,-3.459506 -3.469736,-3.454707 z" />
  </g>
</svg>
